<svg id="Capa_1" enable-background="new 0 0 512 512" height="512" viewBox="0 0 512 512" width="512" xmlns="http://www.w3.org/2000/svg"><g><path d="m455.431 35.427h-328.231c-27.1 0-49.069 21.969-49.069 49.069v299.82h79.727 105.344 165.4 47.384c15.751 0 28.514 12.763 28.514 28.514v-328.334c0-27.1-21.969-49.069-49.069-49.069z" fill="#b98eff"/><path d="m504.5 412.83v35.229c0 15.751-12.763 28.514-28.514 28.514h-96.39c-5.966 0-11.375-2.421-15.295-6.331-3.91-3.92-6.331-9.329-6.331-15.295 0-39.008 31.623-70.631 70.631-70.631h47.384c15.752 0 28.515 12.763 28.515 28.514z" fill="#565eec"/><path d="m364.302 470.242c3.92 3.91 9.329 6.331 15.295 6.331h-350.471c-5.966 0-11.375-2.421-15.295-6.331-3.91-3.92-6.331-9.329-6.331-15.295 0-39.008 31.623-70.631 70.631-70.631h79.727c-1.56 2.502-2.958 5.115-4.194 7.82-6.29 13.745 3.95 29.385 19.073 29.385h61.413c9.663 0 18.121-6.614 20.299-16.024 1.762-7.597 4.751-14.738 8.752-21.18h165.4c-39.008 0-70.631 31.623-70.631 70.631.001 5.965 2.422 11.374 6.332 15.294z" fill="#a4bcff"/><path d="m263.202 384.316c-4.001 6.442-6.989 13.583-8.752 21.18-2.178 9.41-10.636 16.024-20.299 16.024h-61.413c-15.123 0-25.364-15.639-19.073-29.385 1.236-2.704 2.634-5.318 4.194-7.82h105.343z" fill="#ff9bff"/><path d="m133.842 91.138h314.948v237.467h-314.948z" fill="#88f8d8"/><circle cx="351.052" cy="205.498" fill="#007ea8" r="12.675"/><g><path d="m318.153 247.159h-53.676c-4.143 0-7.5-3.358-7.5-7.5s3.357-7.5 7.5-7.5h53.676c4.143 0 7.5 3.358 7.5 7.5s-3.357 7.5-7.5 7.5z" fill="#007ea8"/></g><circle cx="231.58" cy="205.498" fill="#007ea8" r="12.675"/><g><path d="m504.5 420.33c-4.143 0-7.5-3.358-7.5-7.5v-328.334c0-22.921-18.647-41.569-41.569-41.569h-328.231c-22.922 0-41.569 18.647-41.569 41.569v299.82c0 4.142-3.357 2.947-7.5 2.947s-7.5 1.195-7.5-2.947v-299.82c0-31.192 25.377-56.569 56.569-56.569h328.23c31.192 0 56.569 25.376 56.569 56.569v328.334c.001 4.142-3.356 7.5-7.499 7.5z" fill="#6d00ca"/></g><g><path d="m448.79 336.105h-314.948c-4.143 0-7.5-3.358-7.5-7.5v-237.467c0-4.142 3.357-7.5 7.5-7.5h314.948c4.143 0 7.5 3.358 7.5 7.5v237.467c0 4.142-3.357 7.5-7.5 7.5zm-307.448-15h299.948v-222.467h-299.948z" fill="#007ea8"/></g><circle cx="291.316" cy="63.282" fill="#6d00ca" r="8.13"/><path d="m475.986 376.816c-5.613 0-206.911 0-212.784 0-4.143 0-7.5 3.358-7.5 7.5s3.357 7.5 7.5 7.5h119.415c-19.647 14.34-32.146 37.518-32.146 63.131 0 4.754 1.186 9.711 3.642 14.126h-324.987c-7.808 0-14.126-6.314-14.126-14.126 0-34.811 28.32-63.131 63.131-63.131h79.728c4.143 0 7.5-3.358 7.5-7.5s-3.357-7.5-7.5-7.5h-79.728c-43.081 0-78.131 35.049-78.131 78.131 0 16.08 13.013 29.126 29.126 29.126h446.86c19.858 0 36.014-16.156 36.014-36.014v-35.229c0-19.858-16.155-36.014-36.014-36.014zm21.014 71.243c0 11.587-9.427 21.014-21.014 21.014h-96.39c-7.808 0-14.126-6.314-14.126-14.126 0-34.811 28.32-63.131 63.131-63.131h47.385c11.587 0 21.014 9.427 21.014 21.014z" fill="#2115c2"/><g><path d="m234.151 429.021h-61.413c-20.638 0-34.433-21.345-25.893-40.006 1.373-3.006 2.938-5.924 4.649-8.668 1.369-2.196 3.775-3.531 6.363-3.531h105.344c5.869 0 9.472 6.464 6.371 11.457-3.631 5.847-6.261 12.212-7.817 18.918-2.973 12.851-14.324 21.83-27.604 21.83zm-71.966-37.205c-.598 1.122-1.165 2.269-1.697 3.436-4.082 8.918 2.725 18.769 12.251 18.769h61.413c6.258 0 11.6-4.201 12.992-10.215.953-4.109 2.231-8.115 3.824-11.989h-88.783z" fill="#e207b9"/></g></g></svg>